<svg width="72" height="72" viewBox="0 0 72 72" fill="none" xmlns="http://www.w3.org/2000/svg">
<path d="M62.91 21.8104C64.08 20.6404 64.08 18.7504 62.91 17.5804L54.42 9.09039C53.25 7.92039 51.36 7.92039 50.19 9.09039L36.72 22.5604L25.05 10.8904C22.71 8.55039 18.9 8.55039 16.56 10.8904L10.86 16.5904C8.52 18.9304 8.52 22.7404 10.86 25.0804L22.53 36.7504L9 50.2804V63.0004H21.72L35.28 49.4404L46.95 61.1104C49.8 63.9604 53.64 62.9104 55.44 61.1104L61.14 55.4104C63.48 53.0704 63.48 49.2604 61.14 46.9204L49.47 35.2504L62.91 21.8104ZM15.12 20.8204L20.79 15.1204L24.6 18.9304L21.06 22.5004L25.29 26.7304L28.86 23.1604L32.46 26.7604L26.76 32.4604L15.12 20.8204ZM48.81 43.1404L45.24 46.7104L49.47 50.9404L53.04 47.3704L56.85 51.1804L51.15 56.8804L39.48 45.2104L45.18 39.5104L48.81 43.1404ZM19.23 57.0004H15V52.7704L43.83 23.9404L47.73 27.8404L48.06 28.1704L19.23 57.0004ZM48.06 19.6804L52.29 15.4504L56.52 19.6804L52.29 23.9104L48.06 19.6804Z" fill="url(#paint0_linear_1310_242)"/>
<defs>
<linearGradient id="paint0_linear_1310_242" x1="9.5381" y1="9.45715" x2="59.9196" y2="61.576" gradientUnits="userSpaceOnUse">
<stop stop-color="#BA2AFE"/>
<stop offset="1" stop-color="#FED42A"/>
</linearGradient>
</defs>
</svg>
