<svg width="360" height="448" viewBox="0 0 360 448" fill="none" xmlns="http://www.w3.org/2000/svg">
<path d="M180.015 0.00191741L171.898 21.175C153.524 69.02 113.102 101.352 75.3201 134.076C37.5374 166.801 1.71359 200.875 0.0633631 252.578C-1.68078 307.154 32.8235 342.095 73.7331 350.087C110.709 357.313 153.048 343.614 179.926 308.072C206.52 346.629 248.299 359.428 284.651 350.386C324.655 340.437 358.329 304.473 359.941 253.146C360.799 225.814 352.272 202.949 338.797 183.489C325.323 164.029 307.115 147.706 287.978 131.679C249.702 99.6277 207.939 68.7823 188.552 20.9929L180.017 0L180.015 0.00191741ZM180.466 45.5824C204.107 88.8285 243.235 117.591 276.476 145.427C294.316 160.365 310.499 175.06 322.207 191.096C307.594 176.396 287.116 166.305 262.011 164.474C275.658 171.597 283.137 184.34 286.568 204.005C264.603 182.847 243.175 181.021 219.278 200.799C243.485 195.749 262.419 223.068 246.17 242.517C229.655 262.287 197.004 242.974 195.798 214.786C179.109 225.069 181.922 258.457 155.699 254.767C162.346 224.149 154.102 204.048 126.829 192.804C131.08 199.947 132.128 209.538 130.033 218.439C126.133 234.978 111.187 245.502 96.3724 240.87C79.0844 235.549 73.6373 217.181 78.7633 194.392C82.127 179.444 90.9206 168.074 101.732 160.731C84.2238 161.507 68.8476 167.203 56.1528 176.183C65.4485 166.612 75.942 157.24 87.0585 147.613C120.03 119.055 157.905 89.0019 180.466 45.5824ZM204.153 149.589C180.952 150.004 165.638 171.093 173.159 202.536C186.623 166.069 215.541 162.555 251.201 173.398C234.822 156.541 218.074 149.341 204.154 149.59L204.153 149.589ZM181.454 334.426L123.926 448.706H238.982L181.454 334.426Z" fill="url(#paint0_linear_1233_146)"/>
<defs>
<linearGradient id="paint0_linear_1233_146" x1="153.811" y1="129.135" x2="209.393" y2="476.047" gradientUnits="userSpaceOnUse">
<stop stop-color="#BA2AFE"/>
<stop offset="1" stop-color="#FED42A"/>
</linearGradient>
</defs>
</svg>
